<svg xmlns="http://www.w3.org/2000/svg" viewBox="0 0 64 64" role="img" aria-label="Off Hours monogram">
  <defs>
    <linearGradient id="bg" x1="0%" y1="0%" x2="100%" y2="100%">
      <stop offset="0%" stop-color="#fdf7fd" />
      <stop offset="100%" stop-color="#f1dff3" />
    </linearGradient>
    <linearGradient id="accent" x1="10%" y1="10%" x2="90%" y2="90%">
      <stop offset="0%" stop-color="#de79b3" />
      <stop offset="100%" stop-color="#6b78c9" />
    </linearGradient>
  </defs>
  <rect width="64" height="64" rx="18" fill="url(#bg)" />
  <rect x="3" y="3" width="58" height="58" rx="15" fill="none" stroke="rgba(208,107,167,0.35)" />
  <path d="M20 32c0-8 5.3-13 12.6-13 7.4 0 12.4 4.9 12.4 13 0 8-5 13-12.4 13C25.3 45 20 40 20 32Zm6.4 0c0 4.8 2.4 8.2 6.2 8.2 3.8 0 6-3.4 6-8.2s-2.2-8.2-6-8.2c-3.8 0-6.2 3.4-6.2 8.2Z" fill="#2a1730"/>
  <path d="M18 17h4v30h-4zm24 0h4v30h-4z" fill="url(#accent)"/>
  <path d="M16 31h32v3H16z" fill="url(#accent)"/>
</svg>
